<svg id="Layer_1" enable-background="new 0 0 512 512" height="512" viewBox="0 0 512 512" width="512" xmlns="http://www.w3.org/2000/svg"><path d="m471.943 259.215c-1.949-1.626-4.24-2.694-6.646-3.179-2.888-9.977-7.877-19.132-14.863-27.177 5.602-27.794-2.231-53.237-22.484-72.306-5.672-5.341-12.213-10.073-19.529-14.181 2.867-21.328-4.259-40.769-20.361-54.526-10.844-9.264-25.291-15.668-42.425-19.01-.271-1.263-.692-2.513-1.31-3.716-19.97-38.899-60.71-63.849-106.322-65.114-4.048-.112-7.954 1.411-10.855 4.224-2.902 2.813-4.547 6.677-4.561 10.719-.107 31.096-11.808 61.754-32.944 86.326-.104.121-5.661 3.429-8.304 5.022-45.003 27.131-74.926 62.374-81.574 95.556-20.755 16.82-37.282 35.13-48.52 53.969-4.027-.426-8.121.787-11.289 3.478-4.125 3.504-6.043 8.96-5.018 14.275l34.543 178.975c6.756 35.003 35.927 59.45 70.938 59.45h231.097c35.141 0 64.998-25.131 70.994-59.755 5.785-33.406 28.845-146.031 34.599-178.928.924-5.287-1.045-10.664-5.166-14.102zm-49.485-15.955c6.975 5.959 11.651 13.005 14 21.024l-25.708 9.478-46.395-17.104c-3.35-1.234-7.027-1.234-10.377 0l-46.395 17.104-46.396-17.104c-3.35-1.234-7.029-1.234-10.377 0l-46.395 17.104-13.023-4.801c84.429-49.377 189.427-61.277 231.066-25.701zm-170.795-211.805c23.518 4.128 44.272 16.58 58.049 34.78-4.934.16-9.991.506-15.163 1.049-18.427 1.937-37.404 6.217-56.079 12.532 6.901-15.411 11.376-31.725 13.193-48.361zm-54.835 100.534c68.987-41.592 144.502-44.61 171.745-21.334 6.267 5.354 9.727 11.958 10.382 19.722-21.055-5.973-45.751-8.406-73.023-6.983-50.658 2.64-104.985 18.164-153.135 43.729 11.497-12.444 26.535-24.586 44.031-35.134zm-31.048 62.202c44.63-23.899 94.958-38.402 141.713-40.838 44.139-2.304 80.548 6.828 99.893 25.042 8.776 8.263 13.666 17.993 14.645 29.07-25.853-12.804-60.765-17.497-101.025-13.264-49.808 5.235-102.697 23.468-148.927 51.338-5.581 3.365-11.058 6.885-16.351 10.485-2.689-.529-5.486-.324-8.084.634l-46.395 17.104-20.981-7.735c17.272-25.91 47.7-51.588 85.512-71.836zm247.169 252.934c-3.555 20.534-20.593 34.875-41.433 34.875h-231.097c-20.432 0-37.489-14.448-41.481-35.135l-29.502-152.858 26.626 9.816c3.348 1.234 7.029 1.234 10.377 0l46.395-17.104 46.396 17.104c3.35 1.234 7.029 1.234 10.377 0l46.393-17.104 46.396 17.104c3.35 1.234 7.029 1.234 10.377 0l46.395-17.104 46.395 17.104c3.348 1.234 7.029 1.234 10.377 0l26.945-9.934c-4.146 22.059-24.072 119.379-29.936 153.236z"/></svg>