<?xml version="1.0" encoding="iso-8859-1"?>
<!-- Generator: Adobe Illustrator 19.0.0, SVG Export Plug-In . SVG Version: 6.00 Build 0)  -->
<svg version="1.1" id="Capa_1" xmlns="http://www.w3.org/2000/svg" xmlns:xlink="http://www.w3.org/1999/xlink" x="0px" y="0px"
	 viewBox="0 0 512 512" style="enable-background:new 0 0 512 512;" xml:space="preserve">
<g>
	<g>
		<path d="M390.405,182.379C384.02,113.836,326.183,60,256,60c-2.436,0-4.856,0.069-7.26,0.197L238.707,0H121v30h92.293
			l5.852,35.114c-52.678,14.968-92.327,61.196-97.551,117.265C103.828,188.4,91,205.225,91,225
			c0,20.107,13.257,37.172,31.488,42.924L152.745,512h206.51l30.257-244.076C407.743,262.172,421,245.107,421,225
			C421,205.225,408.172,188.4,390.405,182.379z M256,90c52.805,0,96.623,39.183,103.924,90h-91.217l-14.995-89.971
			C254.473,90.013,255.235,90,256,90z M224.119,94.954L238.293,180h-86.217C157.841,139.876,186.372,107.01,224.119,94.954z
			 M332.745,482h-153.49l-26.281-212h206.052L332.745,482z M376,240H136c-8.271,0-15-6.729-15-15s6.729-15,15-15h240
			c8.271,0,15,6.729,15,15S384.271,240,376,240z"/>
	</g>
</g>
<g>
</g>
<g>
</g>
<g>
</g>
<g>
</g>
<g>
</g>
<g>
</g>
<g>
</g>
<g>
</g>
<g>
</g>
<g>
</g>
<g>
</g>
<g>
</g>
<g>
</g>
<g>
</g>
<g>
</g>
</svg>
